<?xml version="1.0" encoding="utf-8"?>
<!-- Generator: Adobe Illustrator 24.3.0, SVG Export Plug-In . SVG Version: 6.00 Build 0)  -->
<svg version="1.1" id="Layer_1" xmlns="http://www.w3.org/2000/svg" xmlns:xlink="http://www.w3.org/1999/xlink" x="0px" y="0px"
	 viewBox="0 0 14400 14400" style="enable-background:new 0 0 14400 14400;" xml:space="preserve">
<style type="text/css">
	.st0{clip-path:url(#SVGID_2_);fill:#FFFFFF;}
	.st1{clip-path:url(#SVGID_2_);fill:#80A7D8;}
	.st2{clip-path:url(#SVGID_2_);}
	.st3{clip-path:url(#SVGID_4_);fill:#F1BD51;}
	.st4{clip-path:url(#SVGID_4_);}
	.st5{fill:#7A361D;}
	.st6{clip-path:url(#SVGID_4_);fill:#7A361D;}
</style>
<g id="ARGENTINA_3_">
	<g>
		<g>
			<defs>
				<rect id="SVGID_1_" x="7067.5" y="7118.5" width="265" height="161"/>
			</defs>
			<clipPath id="SVGID_2_">
				<use xlink:href="#SVGID_1_"  style="overflow:visible;"/>
			</clipPath>
			<rect x="7067.5" y="7172.17" class="st0" width="265" height="53.67"/>
			<rect x="7067.5" y="7118.5" class="st1" width="265" height="53.67"/>
			<rect x="7067.5" y="7225.84" class="st1" width="265" height="53.66"/>
			<g class="st2">
				<defs>
					<rect id="SVGID_3_" x="7067.5" y="7118.5" width="265" height="161"/>
				</defs>
				<clipPath id="SVGID_4_">
					<use xlink:href="#SVGID_3_"  style="overflow:visible;"/>
				</clipPath>
				<path class="st3" d="M7198.94,7198.98l0.8,21.97c0,0,0,0.41,0.26,0.41c0.25,0,0.25-0.41,0.25-0.41l0.8-21.97H7198.94z"/>
				<g class="st4">
					<path class="st5" d="M7200.01,7221.42c-0.26,0-0.32-0.32-0.32-0.47l-0.8-21.95l0.14-0.02l0.77,21.97c0,0,0,0.34,0.22,0.34
						c0.19,0,0.19-0.34,0.19-0.34l0.8-21.97l-0.65,21.97C7200.35,7221.1,7200.25,7221.42,7200.01,7221.42L7200.01,7221.42z"/>
				</g>
				<polygon class="st6" points="7199.48,7198.98 7200.01,7214.07 7200.52,7198.98 				"/>
				<path class="st3" d="M7198.02,7206.08c-1.2,2.76-0.2,5.02-1.37,7.43c-1.23,2.41-0.48,4.39-0.54,5.51
					c-0.09,1.11-0.94,1.42-0.74,1.68c0.23,0.25,1.14-0.25,1.48-1.73c0.35-1.47-0.48-2.31,0.94-5.27c1.47-2.96,0.32-4.3,1.79-6.94
					L7198.02,7206.08z"/>
				<g class="st4">
					<path class="st5" d="M7195.6,7220.82l-0.29-0.08c-0.11-0.16,0-0.32,0.17-0.5c0.2-0.24,0.52-0.61,0.54-1.24
						c0.03-0.3,0-0.65-0.05-1.07c-0.12-1.12-0.29-2.67,0.62-4.45c0.59-1.21,0.62-2.34,0.66-3.56c0.03-1.21,0.09-2.47,0.73-3.87
						l0.11,0.05c-0.6,1.37-0.66,2.63-0.69,3.83c-0.05,1.21-0.11,2.39-0.68,3.6c-0.9,1.74-0.71,3.29-0.6,4.4
						c0.03,0.42,0.06,0.77,0.06,1.08c-0.06,0.67-0.39,1.04-0.6,1.31c-0.15,0.18-0.2,0.25-0.15,0.32c0.52-0.07,1.13-0.6,1.39-1.7
						c0.11-0.48,0.11-0.91,0.08-1.37c-0.06-0.92-0.08-1.95,0.88-3.92c0.73-1.46,0.8-2.52,0.86-3.54c0.06-1.06,0.15-2.06,0.89-3.41
						c-0.63,1.39-0.69,2.37-0.77,3.41c-0.06,1.03-0.15,2.13-0.86,3.6c-0.94,1.94-0.91,2.96-0.89,3.85c0.03,0.48,0.03,0.91-0.08,1.43
						c-0.26,1.07-0.83,1.7-1.26,1.81L7195.6,7220.82L7195.6,7220.82z"/>
				</g>
				<path class="st6" d="M7198.37,7206.78c-0.96,2.75,0.03,4.57-1.23,6.92c1.4-1.68,0.48-3.83,1.68-6.68L7198.37,7206.78z"/>
				<path class="st3" d="M7201.06,7198.98l-0.8-21.93c0,0,0-0.4-0.25-0.4c-0.26,0-0.26,0.4-0.26,0.4l-0.8,21.93H7201.06z"/>
				<g class="st4">
					<path class="st5" d="M7201,7199l-0.8-21.95c0,0,0-0.35-0.19-0.35c-0.22,0-0.22,0.35-0.22,0.35l-0.77,21.96l0.66-21.96
						c0-0.18,0.06-0.49,0.32-0.49c0.25,0,0.34,0.31,0.34,0.49l0.8,21.93L7201,7199L7201,7199z"/>
				</g>
				<polygon class="st6" points="7200.52,7198.98 7200.01,7183.93 7199.48,7198.98 				"/>
				<path class="st3" d="M7202,7191.89c1.2-2.75,0.17-5,1.37-7.42c1.23-2.42,0.46-4.4,0.52-5.5c0.09-1.1,0.97-1.41,0.74-1.68
					c-0.2-0.25-1.11,0.27-1.48,1.72c-0.35,1.47,0.51,2.32-0.96,5.28c-1.45,2.95-0.28,4.28-1.74,6.93L7202,7191.89z"/>
				<g class="st4">
					<path class="st5" d="M7202.06,7191.92l-0.11-0.05c0.59-1.37,0.62-2.61,0.68-3.81c0.03-1.24,0.09-2.4,0.69-3.62
						c0.85-1.74,0.71-3.24,0.57-4.38c0-0.43-0.06-0.8-0.03-1.09c0.03-0.68,0.37-1.06,0.57-1.32c0.17-0.19,0.2-0.27,0.17-0.31
						c-0.51,0.04-1.11,0.58-1.37,1.69c-0.14,0.51-0.11,0.93-0.08,1.37c0.03,0.92,0.08,1.94-0.89,3.92c-0.71,1.46-0.8,2.53-0.86,3.56
						c-0.08,1.05-0.14,2.04-0.88,3.37c0.6-1.38,0.68-2.36,0.74-3.4c0.08-1.04,0.14-2.1,0.88-3.6c0.96-1.92,0.93-2.95,0.86-3.85
						c0-0.44-0.03-0.89,0.09-1.39c0.28-1.19,0.91-1.75,1.28-1.83l0.03-0.01l0.29,0.09c0.14,0.14,0,0.31-0.15,0.48
						c-0.19,0.24-0.54,0.61-0.56,1.23c-0.03,0.31,0,0.67,0.05,1.08c0.11,1.15,0.29,2.68-0.6,4.46c-0.6,1.19-0.63,2.35-0.68,3.56
						C7202.72,7189.27,7202.66,7190.54,7202.06,7191.92L7202.06,7191.92z"/>
				</g>
				<path class="st6" d="M7201.66,7191.19c0.97-2.74-0.06-4.57,1.23-6.9c-1.4,1.67-0.51,3.82-1.71,6.66L7201.66,7191.19z"/>
				<path class="st3" d="M7200.01,7197.89l-21.08,0.81c0,0-0.4,0-0.4,0.27c0,0.3,0.4,0.3,0.4,0.3l21.08,0.82V7197.89z"/>
				<g class="st4">
					<path class="st5" d="M7200.02,7200.03l-21.1-0.7c-0.14,0-0.45-0.06-0.45-0.35c0-0.25,0.31-0.32,0.45-0.32l21.08-0.83l0.02,0.14
						l-21.1,0.82c0,0-0.34,0-0.34,0.19c0,0.22,0.34,0.22,0.34,0.22L7200.02,7200.03L7200.02,7200.03z"/>
				</g>
				<polygon class="st6" points="7200.01,7198.44 7185.54,7198.98 7200.01,7199.54 				"/>
				<path class="st3" d="M7193.19,7196.92c-2.64-1.27-4.81-0.19-7.11-1.45c-2.34-1.25-4.24-0.47-5.32-0.55
					c-1.05-0.1-1.34-1-1.6-0.76c-0.23,0.22,0.26,1.16,1.67,1.53c1.42,0.38,2.22-0.5,5.06,1c2.84,1.53,4.13,0.32,6.68,1.84
					L7193.19,7196.92z"/>
				<g class="st4">
					<path class="st5" d="M7192.59,7198.47c-1.33-0.62-2.3-0.7-3.27-0.79c-1-0.07-2.04-0.15-3.47-0.92
						c-1.85-0.99-2.82-0.96-3.69-0.92c-0.46,0.03-0.86,0.04-1.34-0.09c-1.06-0.27-1.67-0.88-1.76-1.32l-0.01-0.05l0.08-0.29
						c0.19-0.15,0.32,0,0.49,0.16c0.2,0.22,0.57,0.55,1.17,0.59c0.25,0.02,0.63-0.02,1-0.07c1.1-0.11,2.61-0.3,4.32,0.63
						c1.16,0.63,2.24,0.68,3.41,0.71c1.17,0.03,2.34,0.09,3.7,0.72l-0.03,0.14c-1.36-0.64-2.53-0.67-3.67-0.72
						c-1.2-0.05-2.31-0.07-3.49-0.72c-1.67-0.91-3.15-0.74-4.21-0.61c-0.4,0.05-0.76,0.08-1.06,0.06c-0.63-0.05-1-0.38-1.23-0.62
						c-0.17-0.14-0.25-0.2-0.31-0.14c0.06,0.54,0.54,1.13,1.64,1.41c0.45,0.11,0.85,0.1,1.31,0.09c0.86-0.04,1.87-0.09,3.75,0.92
						c1.4,0.75,2.44,0.83,3.41,0.91C7190.32,7197.63,7191.29,7197.71,7192.59,7198.47L7192.59,7198.47z"/>
				</g>
				<path class="st6" d="M7192.53,7197.26c-2.64-0.96-4.38,0.06-6.65-1.25c1.6,1.47,3.7,0.5,6.42,1.77L7192.53,7197.26z"/>
				<path class="st3" d="M7200.01,7200.09l21.08-0.82c0,0,0.39,0,0.39-0.3c0-0.27-0.39-0.27-0.39-0.27l-21.08-0.81V7200.09z"/>
				<g class="st4">
					<path class="st5" d="M7200.02,7200.17l-0.02-0.15l21.08-0.83c0,0,0.32,0,0.32-0.22c0-0.19-0.32-0.19-0.32-0.19l-21.08-0.82
						l21.08,0.69c0.14,0,0.43,0.07,0.43,0.32c0,0.29-0.29,0.35-0.43,0.35L7200.02,7200.17L7200.02,7200.17z"/>
				</g>
				<polygon class="st6" points="7200.01,7199.54 7214.47,7198.98 7200.01,7198.44 				"/>
				<path class="st3" d="M7206.81,7201.06c2.67,1.26,4.84,0.18,7.16,1.45c2.3,1.27,4.21,0.47,5.27,0.56
					c1.05,0.08,1.34,0.98,1.6,0.75c0.25-0.22-0.26-1.17-1.67-1.54c-1.4-0.36-2.24,0.52-5.04-1c-2.85-1.52-4.15-0.31-6.66-1.83
					L7206.81,7201.06z"/>
				<g class="st4">
					<path class="st5" d="M7220.75,7203.93c-0.11,0-0.23-0.1-0.34-0.21c-0.23-0.22-0.57-0.54-1.17-0.58
						c-0.29-0.03-0.63,0.01-1.03,0.06c-1.11,0.12-2.58,0.28-4.27-0.64c-1.17-0.63-2.25-0.67-3.44-0.71
						c-1.17-0.03-2.38-0.09-3.72-0.73l0.06-0.12c1.31,0.63,2.48,0.67,3.65,0.72c1.19,0.05,2.3,0.1,3.5,0.72
						c1.67,0.92,3.12,0.74,4.18,0.62c0.43-0.04,0.77-0.09,1.06-0.06c0.63,0.05,1,0.38,1.25,0.6c0.2,0.18,0.26,0.19,0.29,0.17
						c-0.03-0.53-0.54-1.14-1.6-1.41c-0.48-0.13-0.88-0.12-1.31-0.1c-0.89,0.06-1.87,0.1-3.76-0.92c-1.42-0.75-2.42-0.83-3.39-0.9
						c-1.02-0.09-1.97-0.16-3.27-0.94c1.31,0.64,2.25,0.71,3.27,0.8c0.97,0.08,2,0.17,3.45,0.93c1.83,0.99,2.81,0.94,3.7,0.89
						c0.43-0.02,0.85-0.04,1.34,0.1c1.11,0.29,1.65,0.96,1.74,1.32v0.04l-0.09,0.29
						C7220.84,7203.92,7220.81,7203.93,7220.75,7203.93L7220.75,7203.93z"/>
				</g>
				<path class="st6" d="M7207.47,7200.71c2.65,1,4.41-0.03,6.66,1.27c-1.6-1.45-3.69-0.49-6.42-1.77L7207.47,7200.71z"/>
				<path class="st3" d="M7199.25,7198.21l-14.34,16.11c0,0-0.26,0.29-0.08,0.49c0.17,0.18,0.45-0.11,0.45-0.11l15.47-14.94
					L7199.25,7198.21z"/>
				<g class="st4">
					<path class="st5" d="M7184.97,7214.95c-0.37-0.28-0.2-0.57-0.11-0.68l14.34-16.1l0.11,0.09l-14.34,16.1
						c-0.03,0-0.23,0.25-0.11,0.38c0.14,0.17,0.4-0.1,0.4-0.1l15.45-14.92l-15.38,15.03
						C7185.34,7214.76,7185.17,7214.94,7184.97,7214.95L7184.97,7214.95z"/>
				</g>
				<polygon class="st6" points="7199.62,7198.6 7189.78,7209.64 7200.39,7199.38 				"/>
				<path class="st3" d="M7193.78,7202.54c-2.75,1.05-3.55,3.43-6,4.23c-2.51,0.83-3.32,2.77-4.12,3.5c-0.8,0.72-1.63,0.3-1.67,0.65
					c0,0.33,0.97,0.63,2.24-0.14c1.22-0.76,1.19-2,4.23-3.01c3.07-1.02,3.13-2.81,5.97-3.59L7193.78,7202.54z"/>
				<g class="st4">
					<path class="st5" d="M7182.7,7211.34c-0.25,0-0.46-0.06-0.6-0.14l-0.17-0.28c0-0.22,0.2-0.23,0.43-0.24
						c0.31-0.03,0.77-0.06,1.23-0.47c0.23-0.19,0.43-0.47,0.65-0.79c0.69-0.89,1.63-2.12,3.5-2.73c1.23-0.4,2.05-1.17,2.88-2
						c0.86-0.84,1.76-1.69,3.13-2.21l0.05,0.12c-1.34,0.52-2.22,1.37-3.08,2.18c-0.86,0.84-1.67,1.63-2.95,2.03
						c-1.8,0.59-2.76,1.82-3.41,2.68c-0.26,0.34-0.46,0.61-0.68,0.8c-0.49,0.44-0.99,0.48-1.33,0.51c-0.2,0-0.31,0.01-0.31,0.1
						c0.43,0.34,1.2,0.38,2.11-0.19c0.43-0.27,0.69-0.58,1-0.92c0.57-0.66,1.26-1.44,3.28-2.11c1.5-0.51,2.27-1.2,3.01-1.86
						c0.77-0.7,1.5-1.35,2.96-1.75c-1.39,0.53-2.1,1.16-2.87,1.85c-0.74,0.67-1.51,1.37-3.07,1.89c-1.97,0.67-2.64,1.41-3.22,2.08
						c-0.29,0.34-0.59,0.66-1.02,0.92C7183.66,7211.21,7183.14,7211.34,7182.7,7211.34L7182.7,7211.34z"/>
				</g>
				<path class="st6" d="M7193.53,7203.29c-2.53,1.25-3.07,3.26-5.52,3.99c2.11-0.16,2.92-2.36,5.72-3.46L7193.53,7203.29z"/>
				<path class="st3" d="M7200.75,7199.76l14.34-16.09c0,0,0.28-0.3,0.11-0.5c-0.2-0.19-0.48,0.09-0.48,0.09l-15.47,14.95
					L7200.75,7199.76z"/>
				<g class="st4">
					<path class="st5" d="M7200.79,7199.81l-0.08-0.06l14.34-16.12c0-0.01,0.2-0.25,0.08-0.4c-0.14-0.13-0.37,0.09-0.37,0.09
						l-15.48,14.95l15.41-15.04c0.08-0.1,0.37-0.27,0.54-0.09c0.17,0.2,0,0.47-0.09,0.58L7200.79,7199.81L7200.79,7199.81z"/>
				</g>
				<polygon class="st6" points="7200.39,7199.38 7210.25,7188.34 7199.62,7198.6 				"/>
				<path class="st3" d="M7206.24,7195.44c2.71-1.06,3.52-3.42,6.01-4.23c2.48-0.81,3.32-2.78,4.12-3.5
					c0.8-0.72,1.64-0.29,1.64-0.64c0.03-0.34-0.94-0.65-2.21,0.14c-1.27,0.78-1.23,1.99-4.26,3.02c-3.04,1.02-3.13,2.82-5.94,3.61
					L7206.24,7195.44z"/>
				<g class="st4">
					<path class="st5" d="M7206.24,7195.51l-0.03-0.12c1.36-0.52,2.21-1.38,3.07-2.19c0.85-0.84,1.68-1.64,2.98-2.05
						c1.77-0.58,2.71-1.77,3.38-2.67c0.26-0.34,0.48-0.62,0.71-0.83c0.46-0.43,0.97-0.46,1.3-0.48c0.23-0.02,0.31-0.03,0.31-0.1
						c-0.4-0.34-1.17-0.38-2.11,0.19c-0.4,0.25-0.69,0.58-0.97,0.9c-0.6,0.68-1.29,1.44-3.3,2.14c-1.51,0.49-2.28,1.16-3.04,1.84
						c-0.77,0.69-1.48,1.35-2.92,1.75c1.37-0.51,2.1-1.16,2.84-1.86c0.74-0.67,1.54-1.36,3.1-1.87c1.97-0.68,2.62-1.44,3.19-2.09
						c0.32-0.35,0.6-0.66,1.03-0.94c0.92-0.57,1.74-0.58,2.13-0.35l0.18,0.3c-0.03,0.19-0.22,0.21-0.45,0.23
						c-0.29,0.01-0.77,0.04-1.2,0.44c-0.23,0.2-0.43,0.47-0.69,0.8c-0.68,0.91-1.63,2.13-3.45,2.71c-1.26,0.4-2.07,1.2-2.93,2.02
						C7208.5,7194.12,7207.61,7194.98,7206.24,7195.51L7206.24,7195.51z"/>
				</g>
				<path class="st6" d="M7206.47,7194.7c2.54-1.25,3.08-3.27,5.55-3.98c-2.11,0.15-2.95,2.34-5.72,3.45L7206.47,7194.7z"/>
				<path class="st3" d="M7200.75,7198.21l-15.47-14.95c0,0-0.28-0.28-0.45-0.09c-0.19,0.2,0.08,0.5,0.08,0.5l14.34,16.09
					L7200.75,7198.21z"/>
				<g class="st4">
					<path class="st5" d="M7199.31,7199.75l-14.45-16.04c-0.09-0.11-0.26-0.38-0.06-0.57c0.17-0.19,0.43-0.02,0.54,0.08l15.45,14.95
						l-0.08,0.1l-15.45-14.94c0,0-0.26-0.23-0.4-0.1c-0.12,0.15,0.08,0.39,0.11,0.39L7199.31,7199.75L7199.31,7199.75z"/>
				</g>
				<polygon class="st6" points="7200.39,7198.6 7189.78,7188.34 7199.62,7199.38 				"/>
				<path class="st3" d="M7196.58,7192.52c-0.99-2.85-3.25-3.68-4.06-6.27c-0.77-2.62-2.64-3.44-3.35-4.3
					c-0.69-0.84-0.29-1.69-0.63-1.72c-0.32-0.02-0.6,1.02,0.11,2.31c0.77,1.29,1.94,1.27,2.93,4.43c0.97,3.16,2.68,3.26,3.45,6.21
					L7196.58,7192.52z"/>
				<g class="st4">
					<path class="st5" d="M7195.1,7193.16c-0.52-1.44-1.11-2.18-1.77-2.98c-0.66-0.78-1.31-1.61-1.81-3.18
						c-0.66-2.08-1.37-2.76-2-3.37c-0.34-0.31-0.66-0.6-0.91-1.05c-0.57-1.04-0.52-1.89-0.32-2.22l0.29-0.21
						c0.17,0.02,0.2,0.23,0.2,0.47c0.03,0.31,0.06,0.8,0.43,1.28c0.18,0.23,0.48,0.46,0.8,0.72c0.85,0.71,2,1.67,2.58,3.6
						c0.4,1.28,1.14,2.12,1.94,3.02c0.77,0.88,1.6,1.82,2.14,3.24l-0.14,0.05c-0.49-1.4-1.31-2.33-2.11-3.2
						c-0.8-0.9-1.56-1.76-1.96-3.08c-0.57-1.85-1.71-2.81-2.54-3.52c-0.31-0.27-0.6-0.51-0.8-0.73c-0.4-0.51-0.43-1.03-0.46-1.37
						c-0.03-0.23-0.03-0.33-0.11-0.34c-0.32,0.42-0.37,1.22,0.17,2.22c0.26,0.43,0.57,0.71,0.89,1.02c0.62,0.62,1.37,1.33,2.04,3.42
						c0.45,1.56,1.14,2.37,1.76,3.16C7194.07,7190.9,7194.7,7191.65,7195.1,7193.16L7195.1,7193.16z"/>
				</g>
				<path class="st6" d="M7195.91,7192.26c-1.23-2.64-3.18-3.2-3.87-5.77c0.15,2.2,2.3,3.06,3.33,5.97L7195.91,7192.26z"/>
				<path class="st3" d="M7199.25,7199.76l15.47,14.94c0,0,0.28,0.29,0.48,0.11c0.17-0.2-0.11-0.49-0.11-0.49l-14.34-16.11
					L7199.25,7199.76z"/>
				<g class="st4">
					<path class="st5" d="M7215.03,7214.86c-0.23,0-0.34-0.1-0.34-0.11l-15.48-14.92l0.08-0.1l15.48,14.92c0,0,0.23,0.27,0.37,0.1
						c0.12-0.14-0.08-0.38-0.08-0.38l-14.34-16.1l14.42,16.01c0.12,0.14,0.26,0.4,0.09,0.58
						C7215.17,7214.86,7215.12,7214.86,7215.03,7214.86L7215.03,7214.86z"/>
				</g>
				<polygon class="st6" points="7199.62,7199.38 7210.25,7209.64 7200.39,7198.6 				"/>
				<path class="st3" d="M7203.4,7205.49c1.03,2.83,3.3,3.65,4.07,6.26c0.77,2.59,2.65,3.44,3.35,4.27
					c0.73,0.85,0.29,1.71,0.63,1.74c0.31,0.01,0.63-1-0.12-2.31c-0.74-1.3-1.91-1.28-2.88-4.43c-1-3.18-2.73-3.28-3.47-6.21
					L7203.4,7205.49z"/>
				<g class="st4">
					<path class="st5" d="M7211.45,7217.82c-0.2,0-0.2-0.22-0.23-0.47c-0.03-0.31-0.06-0.8-0.43-1.28c-0.2-0.22-0.45-0.45-0.77-0.7
						c-0.86-0.71-2.04-1.68-2.61-3.61c-0.37-1.29-1.14-2.13-1.94-3.03c-0.77-0.89-1.6-1.81-2.13-3.23l0.12-0.06
						c0.52,1.41,1.31,2.31,2.11,3.2c0.8,0.92,1.59,1.76,1.96,3.08c0.57,1.88,1.74,2.83,2.56,3.55c0.32,0.26,0.62,0.47,0.79,0.72
						c0.42,0.5,0.45,1.01,0.45,1.34c0.03,0.26,0.06,0.34,0.12,0.34c0.34-0.43,0.4-1.22-0.17-2.19c-0.26-0.43-0.54-0.73-0.86-1.04
						c-0.66-0.61-1.37-1.32-2.04-3.4c-0.48-1.57-1.14-2.37-1.8-3.16c-0.65-0.8-1.28-1.55-1.65-3.04c0.48,1.43,1.08,2.18,1.77,2.97
						c0.62,0.78,1.31,1.59,1.8,3.2c0.63,2.06,1.37,2.75,1.99,3.35c0.32,0.32,0.65,0.61,0.9,1.06c0.55,0.98,0.57,1.83,0.34,2.22
						L7211.45,7217.82L7211.45,7217.82z"/>
				</g>
				<path class="st6" d="M7204.12,7205.72c1.19,2.64,3.15,3.19,3.84,5.77c-0.15-2.22-2.27-3.06-3.33-5.95L7204.12,7205.72z"/>
				<path class="st3" d="M7199.02,7198.57l-7.33,20.61c0,0-0.14,0.38,0.09,0.47c0.25,0.11,0.4-0.27,0.4-0.27l8.78-19.97
					L7199.02,7198.57z"/>
				<g class="st4">
					<path class="st5" d="M7191.96,7219.72c-0.43-0.11-0.37-0.42-0.31-0.58l7.31-20.6l0.12,0.06l-7.33,20.59
						c0,0.01-0.11,0.33,0.05,0.4l0.32-0.25l8.79-19.96l-8.68,20.03C7192.23,7219.42,7192.16,7219.64,7191.96,7219.72
						L7191.96,7219.72z"/>
				</g>
				<polygon class="st6" points="7199.55,7198.78 7194.47,7212.92 7200.49,7199.2 				"/>
				<path class="st3" d="M7195.57,7204.76c-2.13,2.06-2,4.55-4.01,6.3c-2,1.75-2.04,3.89-2.53,4.88c-0.48,0.99-1.39,0.93-1.28,1.25
					c0.11,0.32,1.14,0.21,2-1c0.85-1.21,0.4-2.35,2.84-4.5c2.42-2.15,1.83-3.83,4.15-5.69L7195.57,7204.76z"/>
				<g class="st4">
					<path class="st5" d="M7188.09,7217.41c-0.05,0-0.08,0-0.11-0.01l-0.29-0.18c-0.08-0.19,0.12-0.29,0.32-0.39
						c0.28-0.17,0.71-0.37,0.97-0.92c0.14-0.28,0.23-0.64,0.34-1.04c0.29-1.08,0.72-2.57,2.21-3.86c0.97-0.87,1.44-1.93,1.94-3.03
						c0.46-1.11,0.97-2.24,2.04-3.29l0.09,0.1c-1.03,1.02-1.56,2.15-2.04,3.23c-0.49,1.14-0.96,2.19-1.97,3.07
						c-1.43,1.27-1.84,2.73-2.16,3.82c-0.11,0.43-0.22,0.78-0.34,1.05c-0.28,0.59-0.74,0.83-1.03,0.96
						c-0.2,0.11-0.28,0.16-0.25,0.23c0.51,0.16,1.22-0.1,1.88-1.02c0.29-0.41,0.43-0.8,0.57-1.23c0.32-0.87,0.66-1.83,2.27-3.27
						c1.2-1.06,1.65-2.01,2.11-2.93c0.46-0.94,0.89-1.83,2.07-2.77c-1.08,1.02-1.48,1.9-1.94,2.82c-0.46,0.94-0.93,1.9-2.16,2.99
						c-1.57,1.41-1.91,2.37-2.22,3.2c-0.15,0.43-0.29,0.85-0.59,1.27C7189.21,7217.05,7188.49,7217.41,7188.09,7217.41
						L7188.09,7217.41z"/>
				</g>
				<path class="st6" d="M7195.63,7205.55c-1.9,2.15-1.64,4.23-3.67,5.89c1.91-0.98,1.85-3.36,4.01-5.47L7195.63,7205.55z"/>
				<path class="st3" d="M7200.96,7199.42l7.37-20.6c0,0,0.14-0.37-0.12-0.47c-0.23-0.11-0.37,0.26-0.37,0.26l-8.82,19.96
					L7200.96,7199.42z"/>
				<g class="st4">
					<path class="st5" d="M7201.06,7199.43l-0.14-0.04l7.33-20.6c0,0,0.14-0.31-0.03-0.39l-0.31,0.23l-8.82,19.97l8.67-20.01
						c0,0,0.12-0.23,0.29-0.31l0.37,0.15c0.06,0.18-0.03,0.39-0.03,0.41L7201.06,7199.43L7201.06,7199.43z"/>
				</g>
				<polygon class="st6" points="7200.49,7199.2 7205.56,7185.07 7199.55,7198.78 				"/>
				<path class="st3" d="M7204.46,7193.23c2.11-2.07,2-4.57,4.01-6.3c2-1.74,2.02-3.89,2.48-4.88c0.52-0.99,1.43-0.92,1.33-1.25
					c-0.15-0.33-1.14-0.22-2,0.99c-0.89,1.22-0.4,2.35-2.84,4.5c-2.44,2.15-1.87,3.85-4.18,5.7L7204.46,7193.23z"/>
				<g class="st4">
					<path class="st5" d="M7204.5,7193.29l-0.09-0.1c1.06-1.03,1.56-2.15,2.04-3.26c0.48-1.12,0.94-2.18,1.97-3.06
						c1.47-1.25,1.87-2.74,2.17-3.81c0.12-0.41,0.2-0.77,0.34-1.04c0.29-0.61,0.76-0.83,1.02-0.98c0.19-0.11,0.31-0.16,0.28-0.23
						c-0.54-0.15-1.26,0.11-1.88,1.02c-0.32,0.4-0.43,0.82-0.62,1.23c-0.28,0.88-0.65,1.86-2.25,3.28c-1.17,1.05-1.67,1.99-2.1,2.92
						c-0.45,0.94-0.88,1.84-2.05,2.77c1.05-1.03,1.48-1.91,1.94-2.83c0.43-0.93,0.91-1.89,2.11-2.96c1.6-1.41,1.91-2.37,2.24-3.21
						c0.17-0.45,0.32-0.86,0.6-1.28c0.63-0.89,1.37-1.26,1.83-1.17l0.28,0.2c0.06,0.18-0.11,0.28-0.31,0.39
						c-0.29,0.14-0.72,0.35-0.97,0.91c-0.15,0.27-0.23,0.61-0.34,1.02c-0.29,1.1-0.73,2.59-2.21,3.88c-1,0.86-1.43,1.91-1.96,3.01
						C7206.07,7191.1,7205.57,7192.25,7204.5,7193.29L7204.5,7193.29z"/>
				</g>
				<path class="st6" d="M7204.4,7192.45c1.9-2.15,1.63-4.24,3.67-5.9c-1.93,0.99-1.87,3.34-4.04,5.48L7204.4,7192.45z"/>
				<path class="st3" d="M7200.39,7197.98l-19.77-7.64c0,0-0.35-0.16-0.46,0.09c-0.08,0.27,0.29,0.42,0.29,0.42l19.15,9.16
					L7200.39,7197.98z"/>
				<g class="st4">
					<path class="st5" d="M7199.62,7199.96l-19.2-9.04c-0.15-0.08-0.4-0.26-0.32-0.51c0.12-0.23,0.43-0.19,0.56-0.12l19.77,7.63
						l-0.03,0.13l-19.77-7.64c-0.03,0-0.32-0.13-0.4,0.06c-0.06,0.2,0.23,0.34,0.23,0.34L7199.62,7199.96L7199.62,7199.96z"/>
				</g>
				<polygon class="st6" points="7200.19,7198.49 7186.62,7193.21 7199.79,7199.51 				"/>
				<path class="st3" d="M7194.47,7194.37c-1.97-2.23-4.38-2.09-6.06-4.18c-1.67-2.08-3.7-2.12-4.67-2.61
					c-0.94-0.51-0.88-1.45-1.2-1.35c-0.31,0.1-0.23,1.18,0.97,2.09c1.14,0.91,2.24,0.42,4.3,2.94c2.08,2.55,3.69,1.94,5.49,4.34
					L7194.47,7194.37z"/>
				<g class="st4">
					<path class="st5" d="M7193.33,7195.55c-1-1.13-1.84-1.57-2.73-2.02c-0.91-0.48-1.82-0.96-2.85-2.23
						c-1.34-1.65-2.27-2-3.07-2.31c-0.43-0.14-0.8-0.31-1.23-0.62c-0.85-0.67-1.2-1.47-1.14-1.92l0.2-0.27
						c0.17-0.08,0.29,0.1,0.39,0.32c0.14,0.29,0.34,0.73,0.88,1.01c0.23,0.13,0.57,0.23,0.94,0.33c1.06,0.32,2.53,0.75,3.75,2.31
						c0.83,1.03,1.83,1.5,2.9,2.02c1.08,0.5,2.17,1.03,3.18,2.15l-0.11,0.1c-0.99-1.1-2.07-1.63-3.1-2.14
						c-1.13-0.51-2.11-1-2.98-2.04c-1.2-1.53-2.64-1.95-3.67-2.26c-0.4-0.12-0.71-0.23-0.97-0.35c-0.57-0.31-0.8-0.77-0.94-1.07
						c-0.09-0.22-0.14-0.32-0.23-0.28c-0.14,0.52,0.11,1.29,1,1.97c0.4,0.3,0.77,0.44,1.17,0.6c0.83,0.31,1.77,0.67,3.15,2.35
						c1,1.26,1.93,1.73,2.81,2.19C7191.59,7193.88,7192.44,7194.33,7193.33,7195.55L7193.33,7195.55z"/>
				</g>
				<path class="st6" d="M7193.73,7194.41c-2.08-1.94-4.09-1.71-5.67-3.8c0.94,1.98,3.21,1.91,5.27,4.18L7193.73,7194.41z"/>
				<path class="st3" d="M7199.61,7200l19.77,7.64c0,0,0.34,0.17,0.46-0.1c0.11-0.26-0.26-0.4-0.26-0.4l-19.19-9.16L7199.61,7200z"
					/>
				<g class="st4">
					<path class="st5" d="M7219.61,7207.76c-0.11,0-0.17-0.03-0.26-0.06l-19.77-7.63l0.05-0.12l19.79,7.63c0,0,0.28,0.12,0.37-0.06
						c0.09-0.18-0.23-0.32-0.23-0.32l-19.17-9.16l19.23,9.04c0.14,0.07,0.4,0.26,0.29,0.49
						C7219.84,7207.71,7219.72,7207.76,7219.61,7207.76L7219.61,7207.76z"/>
				</g>
				<polygon class="st6" points="7199.79,7199.51 7213.36,7204.76 7200.19,7198.49 				"/>
				<path class="st3" d="M7205.53,7203.63c2,2.22,4.41,2.09,6.06,4.18c1.68,2.1,3.72,2.12,4.67,2.61c0.97,0.51,0.88,1.46,1.23,1.35
					c0.28-0.11,0.19-1.19-0.99-2.1c-1.17-0.9-2.22-0.39-4.29-2.92c-2.1-2.54-3.72-1.94-5.49-4.35L7205.53,7203.63z"/>
				<g class="st4">
					<path class="st5" d="M7217.43,7211.84c-0.15,0-0.23-0.18-0.32-0.36c-0.14-0.29-0.34-0.72-0.85-1c-0.26-0.14-0.6-0.23-1-0.35
						c-1.03-0.31-2.5-0.74-3.7-2.28c-0.82-1.03-1.87-1.52-2.91-2.02c-1.06-0.51-2.17-1.04-3.15-2.15l0.08-0.1
						c0.97,1.1,2.07,1.61,3.13,2.12c1.08,0.51,2.08,0.99,2.95,2.04c1.2,1.53,2.64,1.94,3.66,2.26c0.4,0.12,0.73,0.22,0.99,0.35
						c0.57,0.3,0.8,0.76,0.94,1.06c0.11,0.25,0.14,0.3,0.23,0.27c0.14-0.51-0.09-1.28-0.99-1.97c-0.4-0.29-0.77-0.44-1.2-0.59
						c-0.82-0.31-1.74-0.67-3.15-2.35c-0.99-1.25-1.91-1.73-2.81-2.19c-0.88-0.48-1.74-0.93-2.62-2.16c0.97,1.12,1.8,1.56,2.71,2.04
						c0.89,0.46,1.8,0.95,2.84,2.23c1.34,1.65,2.25,1.99,3.08,2.31c0.43,0.15,0.8,0.29,1.2,0.62c0.96,0.71,1.2,1.55,1.14,1.92
						l-0.17,0.28C7217.5,7211.83,7217.47,7211.84,7217.43,7211.84L7217.43,7211.84z"/>
				</g>
				<path class="st6" d="M7206.3,7203.57c2.05,1.96,4.06,1.69,5.65,3.82c-0.96-1.99-3.21-1.94-5.24-4.19L7206.3,7203.57z"/>
				<path class="st3" d="M7199.61,7197.98l-19.15,9.16c0,0-0.37,0.15-0.29,0.4c0.11,0.26,0.46,0.1,0.46,0.1l19.77-7.64
					L7199.61,7197.98z"/>
				<g class="st4">
					<path class="st5" d="M7180.42,7207.76c-0.12,0-0.26-0.05-0.32-0.19c-0.08-0.23,0.17-0.43,0.32-0.49l19.15-9.16l0.05,0.12
						l-19.17,9.16c0,0-0.29,0.15-0.23,0.32c0.08,0.19,0.37,0.06,0.4,0.06l19.77-7.63l-19.74,7.75
						C7180.59,7207.73,7180.5,7207.76,7180.42,7207.76L7180.42,7207.76z"/>
				</g>
				<polygon class="st6" points="7199.79,7198.49 7186.62,7204.76 7200.19,7199.51 				"/>
				<path class="st3" d="M7192.96,7199.8c-2.92-0.11-4.52,1.75-7.14,1.51c-2.59-0.24-4.06,1.24-5.06,1.59
					c-1.03,0.35-1.64-0.38-1.77-0.06c-0.17,0.3,0.66,0.98,2.08,0.76c1.44-0.22,1.9-1.36,5.04-1.1c3.18,0.27,3.93-1.36,6.85-0.95
					V7199.8z"/>
				<g class="st4">
					<path class="st5" d="M7180.53,7203.71c-0.85,0-1.37-0.32-1.54-0.57l-0.08-0.34c0.11-0.18,0.28-0.11,0.51-0.03
						c0.29,0.1,0.74,0.26,1.28,0.07c0.29-0.09,0.6-0.27,0.96-0.47c0.97-0.55,2.25-1.3,4.16-1.13c1.29,0.14,2.36-0.28,3.44-0.71
						c1.09-0.42,2.21-0.86,3.7-0.8v0.14c-1.4-0.06-2.58,0.38-3.67,0.78c-1.08,0.43-2.14,0.83-3.47,0.72
						c-1.85-0.18-3.18,0.56-4.12,1.12c-0.34,0.19-0.66,0.35-0.94,0.47c-0.6,0.19-1.08,0.05-1.37-0.06c-0.26-0.1-0.32-0.1-0.34-0.05
						c0.26,0.5,0.91,0.85,2.02,0.67c0.46-0.07,0.86-0.25,1.23-0.43c0.8-0.39,1.7-0.83,3.81-0.66c1.57,0.14,2.54-0.19,3.5-0.51
						c0.97-0.33,1.88-0.64,3.35-0.44c-1.53-0.08-2.36,0.25-3.32,0.57c-0.96,0.33-1.93,0.65-3.53,0.52
						c-2.08-0.18-2.98,0.27-3.75,0.64c-0.4,0.19-0.77,0.38-1.27,0.47C7180.9,7203.68,7180.7,7203.71,7180.53,7203.71
						L7180.53,7203.71z"/>
				</g>
				<path class="st6" d="M7192.47,7200.37c-2.81,0.15-4.03,1.81-6.62,1.48c2.04,0.71,3.58-1,6.59-0.9L7192.47,7200.37z"/>
				<path class="st3" d="M7200.39,7200l19.19-9.16c0,0,0.37-0.15,0.26-0.42c-0.12-0.25-0.46-0.09-0.46-0.09l-19.77,7.64
					L7200.39,7200z"/>
				<g class="st4">
					<path class="st5" d="M7200.42,7200.08l-0.05-0.12l19.17-9.16c0,0,0.32-0.14,0.23-0.34c-0.09-0.18-0.37-0.06-0.37-0.06
						l-19.79,7.64l19.73-7.76c0.15-0.07,0.46-0.11,0.56,0.12c0.11,0.26-0.15,0.43-0.29,0.51L7200.42,7200.08L7200.42,7200.08z"/>
				</g>
				<polygon class="st6" points="7200.19,7199.51 7213.36,7193.21 7199.79,7198.49 				"/>
				<path class="st3" d="M7207.07,7198.19c2.88,0.12,4.52-1.76,7.12-1.5c2.61,0.24,4.07-1.25,5.06-1.6
					c1.03-0.33,1.63,0.38,1.79,0.06c0.14-0.3-0.66-0.99-2.13-0.77c-1.42,0.24-1.85,1.37-5.03,1.1c-3.18-0.27-3.93,1.35-6.82,0.95
					V7198.19z"/>
				<g class="st4">
					<path class="st5" d="M7207.32,7198.26c-0.08,0-0.15,0-0.25,0v-0.14c1.43,0.05,2.54-0.37,3.64-0.8
						c1.11-0.43,2.17-0.83,3.49-0.71c1.87,0.17,3.18-0.57,4.12-1.12c0.35-0.21,0.66-0.38,0.94-0.47c0.62-0.21,1.06-0.04,1.39,0.07
						c0.22,0.09,0.31,0.1,0.31,0.03c-0.23-0.47-0.91-0.84-2-0.68c-0.49,0.08-0.86,0.25-1.23,0.45c-0.83,0.39-1.71,0.83-3.82,0.65
						c-1.56-0.14-2.56,0.2-3.47,0.53c-0.97,0.32-1.9,0.63-3.35,0.43c1.45,0.07,2.34-0.25,3.29-0.58c0.94-0.31,1.93-0.64,3.53-0.52
						c2.08,0.18,2.98-0.26,3.75-0.63c0.4-0.21,0.8-0.4,1.28-0.47c1.1-0.18,1.87,0.15,2.13,0.54l0.05,0.34
						c-0.08,0.18-0.28,0.11-0.51,0.03c-0.29-0.1-0.71-0.26-1.29-0.07c-0.25,0.1-0.57,0.26-0.91,0.47c-0.97,0.57-2.27,1.31-4.21,1.13
						c-1.28-0.13-2.31,0.29-3.41,0.71C7209.72,7197.86,7208.67,7198.26,7207.32,7198.26L7207.32,7198.26z"/>
				</g>
				<path class="st6" d="M7207.56,7197.59c2.79-0.13,4.03-1.78,6.57-1.47c-2-0.71-3.58,1.02-6.55,0.92L7207.56,7197.59z"/>
				<path class="st3" d="M7200.96,7198.57l-8.78-19.96c0,0-0.15-0.38-0.4-0.26c-0.23,0.1-0.09,0.47-0.09,0.47l7.33,20.6
					L7200.96,7198.57z"/>
				<g class="st4">
					<path class="st5" d="M7199.08,7199.39l-7.43-20.54c0-0.02-0.09-0.23-0.03-0.4l0.34-0.16c0.2,0.07,0.28,0.31,0.28,0.31
						l8.79,19.96l-0.11,0.06l-8.96-20.26l-0.15,0.06l-0.05,0.39L7199.08,7199.39L7199.08,7199.39z"/>
				</g>
				<polygon class="st6" points="7200.49,7198.78 7194.47,7185.07 7199.55,7199.2 				"/>
				<path class="st3" d="M7199.25,7191.65c0.11-3.04-1.68-4.72-1.47-7.42c0.23-2.71-1.2-4.25-1.54-5.3
					c-0.31-1.06,0.37-1.67,0.09-1.83c-0.32-0.15-0.97,0.68-0.74,2.18c0.22,1.51,1.31,1.94,1.05,5.26c-0.25,3.32,1.3,4.08,0.93,7.11
					L7199.25,7191.65z"/>
				<g class="st4">
					<path class="st5" d="M7199.31,7191.65h-0.14c0.05-1.5-0.37-2.67-0.76-3.8c-0.42-1.16-0.82-2.25-0.71-3.63
						c0.17-1.97-0.54-3.3-1.06-4.28c-0.2-0.38-0.37-0.71-0.46-0.97c-0.17-0.65-0.02-1.13,0.09-1.45c0.06-0.23,0.09-0.32,0.03-0.35
						c-0.49,0.26-0.8,0.97-0.66,2.1c0.09,0.51,0.26,0.89,0.43,1.31c0.37,0.84,0.8,1.77,0.63,3.97c-0.12,1.64,0.2,2.65,0.49,3.62
						c0.31,1.01,0.62,1.95,0.42,3.49c0.06-1.52-0.23-2.45-0.54-3.45c-0.31-0.99-0.63-2.01-0.51-3.67c0.17-2.17-0.23-3.09-0.6-3.9
						c-0.19-0.42-0.37-0.81-0.43-1.32c-0.17-1.12,0.14-1.93,0.48-2.19l0.35-0.07c0.17,0.09,0.11,0.29,0.03,0.53
						c-0.12,0.3-0.26,0.76-0.09,1.35c0.09,0.28,0.28,0.59,0.46,0.96c0.51,0.99,1.25,2.36,1.08,4.36c-0.11,1.34,0.26,2.43,0.69,3.57
						C7198.94,7188.94,7199.36,7190.12,7199.31,7191.65L7199.31,7191.65z"/>
				</g>
				<path class="st6" d="M7198.68,7191.14c-0.14-2.92-1.71-4.21-1.43-6.87c-0.68,2.1,0.97,3.73,0.89,6.84L7198.68,7191.14z"/>
				<path class="st3" d="M7199.02,7199.42l8.82,19.97c0,0,0.14,0.38,0.37,0.27c0.26-0.1,0.12-0.47,0.12-0.47l-7.37-20.61
					L7199.02,7199.42z"/>
				<g class="st4">
					<path class="st5" d="M7208.24,7219.72c-0.37-0.08-0.49-0.31-0.49-0.31l-8.79-19.97l0.12-0.06l8.82,19.96
						c0,0,0.14,0.34,0.31,0.25c0.17-0.07,0.03-0.39,0.03-0.4l-7.33-20.59l7.46,20.54C7208.44,7219.3,7208.5,7219.61,7208.24,7219.72
						L7208.24,7219.72z"/>
				</g>
				<polygon class="st6" points="7199.55,7199.2 7205.56,7212.92 7200.49,7198.78 				"/>
				<path class="st3" d="M7200.78,7206.33c-0.12,3.04,1.68,4.72,1.45,7.43c-0.23,2.7,1.2,4.22,1.51,5.31
					c0.35,1.05-0.37,1.67-0.05,1.82c0.29,0.15,0.94-0.7,0.74-2.19c-0.23-1.49-1.31-1.94-1.06-5.25c0.26-3.29-1.28-4.08-0.91-7.09
					L7200.78,7206.33z"/>
				<g class="st4">
					<path class="st5" d="M7203.66,7220.97c-0.2-0.1-0.11-0.31-0.03-0.52c0.09-0.31,0.26-0.77,0.06-1.37
						c-0.09-0.29-0.26-0.6-0.46-0.98c-0.51-0.99-1.23-2.35-1.1-4.35c0.12-1.34-0.25-2.41-0.65-3.56c-0.4-1.15-0.86-2.33-0.8-3.86
						l0.14,0.01c-0.05,1.5,0.37,2.67,0.77,3.8c0.43,1.15,0.8,2.25,0.69,3.62c-0.17,1.94,0.54,3.3,1.05,4.29
						c0.22,0.37,0.39,0.69,0.46,0.99c0.2,0.63,0.06,1.11-0.06,1.45c-0.08,0.23-0.08,0.31-0.02,0.35c0.45-0.26,0.8-0.98,0.63-2.13
						c-0.06-0.49-0.23-0.88-0.43-1.29c-0.34-0.83-0.77-1.76-0.6-3.97c0.11-1.64-0.2-2.63-0.52-3.62c-0.31-1-0.6-1.95-0.42-3.49
						c-0.06,1.52,0.25,2.46,0.56,3.45c0.29,0.99,0.65,2.02,0.49,3.67c-0.17,2.17,0.26,3.1,0.6,3.91c0.2,0.42,0.37,0.81,0.46,1.33
						c0.14,1.12-0.17,1.9-0.51,2.19L7203.66,7220.97L7203.66,7220.97z"/>
				</g>
				<path class="st6" d="M7201.33,7206.85c0.15,2.92,1.73,4.21,1.42,6.87c0.68-2.11-0.96-3.73-0.86-6.83L7201.33,7206.85z"/>
				<path class="st3" d="M7200.01,7190.05c4.75,0,8.57,3.99,8.57,8.92c0,4.96-3.83,8.95-8.57,8.95c-4.77,0-8.61-4-8.61-8.95
					C7191.4,7194.04,7195.24,7190.05,7200.01,7190.05L7200.01,7190.05z"/>
				<g class="st4">
					<path class="st5" d="M7200.01,7208c-4.78,0-8.65-4.04-8.65-9.03c0-4.95,3.87-9,8.65-9c4.77,0,8.67,4.05,8.67,9
						C7208.67,7203.96,7204.77,7208,7200.01,7208L7200.01,7208z M7200.01,7190.12c-4.7,0-8.54,3.98-8.54,8.86
						c0,4.92,3.84,8.9,8.54,8.9c4.72,0,8.51-3.98,8.51-8.9C7208.52,7194.1,7204.73,7190.12,7200.01,7190.12L7200.01,7190.12z"/>
				</g>
				<path class="st6" d="M7205.44,7197.06c-1.54-1.37-3.44-1.58-4.52-0.53c-0.76,1.04-0.69,2.32,0.23,3.64
					c-0.09,0-0.23,0.07-0.29,0.11c-0.66-1.31-0.77-2.67-0.34-3.9C7202,7195.15,7203.99,7195.01,7205.44,7197.06L7205.44,7197.06z"/>
				<path class="st6" d="M7203.06,7196.65c-0.9,0-1.06,0.22-1.47,0.55c-0.4,0.35-0.6,0.27-0.68,0.35c-0.06,0.06,0,0.27,0.14,0.2
					c0.14-0.08,0.4-0.2,0.8-0.55c0.37-0.34,0.8-0.34,1.2-0.34c1.17,0,1.83,1.03,1.97,0.96
					C7205.16,7197.75,7204.36,7196.65,7203.06,7196.65L7203.06,7196.65z"/>
				<path class="st6" d="M7204.54,7197.83c-0.82-0.96-2.42-1.04-3.08,0.06h0.26c0.66-1.1,2.27-0.63,2.37-0.14v0.14L7204.54,7197.83z
					"/>
				<path class="st6" d="M7202.92,7197.13c0.31,0,0.6,0.29,0.6,0.63c0,0.34-0.29,0.62-0.6,0.62c-0.32,0-0.6-0.28-0.6-0.62
					C7202.32,7197.42,7202.6,7197.13,7202.92,7197.13L7202.92,7197.13z"/>
				<path class="st6" d="M7201.46,7197.89c0.66,0.61,2.13,0.69,3.08-0.06l-0.45-0.07c-0.66,0.75-1.71,0.68-2.37,0.14v-0.14
					L7201.46,7197.89z"/>
				<path class="st6" d="M7204.63,7198.16c-1.11,0.91-2.25,0.81-2.91,0.42c-0.66-0.42-0.66-0.55-0.52-0.55c0.12,0,0.26,0.13,0.8,0.4
					C7202.52,7198.7,7203.32,7198.7,7204.63,7198.16L7204.63,7198.16z"/>
				<path class="st6" d="M7201.4,7200.25c0.2,0.06,0.32,0.31,0.23,0.51c-0.08,0.22-0.31,0.34-0.48,0.25
					c-0.18-0.05-0.26-0.19-0.29-0.36c-0.06,0.13-0.34,0.55-0.85,0.55h-0.12l0.12,0.21c0.14,0,0.51,0,0.79-0.21
					c0.2,0.28,0.54,0.35,0.83,0.17c0.26-0.21,0.36-0.59,0.14-0.88C7201.69,7200.34,7201.55,7200.26,7201.4,7200.25L7201.4,7200.25z"
					/>
				<path class="st6" d="M7202.17,7203.11c-0.57-0.41-0.85-1.03-1.51-1.03c-0.14,0-0.4,0.07-0.65,0.22h-0.12l0.12,0.19
					c0.25,0,0.65-0.34,1.14-0.06C7201.6,7202.7,7201.86,7202.98,7202.17,7203.11L7202.17,7203.11z"/>
				<path class="st6" d="M7202,7203.11c-1.34-0.41-1.6-0.14-1.99-0.14h-0.12l0.12,0.29
					C7200.52,7203.27,7200.79,7202.85,7202,7203.11L7202,7203.11z"/>
				<path class="st6" d="M7202.17,7203.11c-1.42-0.14-0.97,0.76-2.16,0.76h-0.12l0.12,0.21
					C7201.46,7204.08,7200.79,7203.27,7202.17,7203.11L7202.17,7203.11z"/>
				<path class="st6" d="M7201.19,7205.31c0-0.67-0.54-1.23-1.19-1.23c-0.65,0-1.2,0.55-1.2,1.23c0.15-0.67,0.82-1.1,1.48-0.92
					C7200.75,7204.49,7201.09,7204.85,7201.19,7205.31L7201.19,7205.31z"/>
				<path class="st6" d="M7194.58,7197.06c1.53-1.37,3.44-1.58,4.5-0.53c0.77,1.04,0.68,2.32-0.2,3.64c0.06,0,0.2,0.07,0.26,0.11
					c0.65-1.31,0.8-2.67,0.34-3.9C7198.02,7195.15,7196.04,7195.01,7194.58,7197.06L7194.58,7197.06z"/>
				<path class="st6" d="M7196.97,7196.65c0.85,0,1.05,0.22,1.45,0.55c0.39,0.35,0.57,0.27,0.66,0.35c0.06,0.06,0,0.27-0.14,0.2
					c-0.14-0.08-0.39-0.2-0.8-0.55c-0.39-0.34-0.79-0.34-1.17-0.34c-1.19,0-1.83,1.03-1.99,0.96
					C7194.84,7197.75,7195.64,7196.65,7196.97,7196.65L7196.97,7196.65z"/>
				<path class="st6" d="M7195.44,7197.83c0.86-0.96,2.44-1.04,3.12,0.06h-0.28c-0.66-1.1-2.24-0.63-2.34-0.14v0.14L7195.44,7197.83
					z"/>
				<path class="st6" d="M7197.11,7197.13c-0.34,0-0.6,0.29-0.6,0.63c0,0.34,0.26,0.62,0.6,0.62c0.31,0,0.57-0.28,0.57-0.62
					C7197.68,7197.42,7197.42,7197.13,7197.11,7197.13L7197.11,7197.13z"/>
				<path class="st6" d="M7198.56,7197.89c-0.68,0.61-2.11,0.69-3.12-0.06l0.49-0.07c0.63,0.75,1.68,0.68,2.34,0.14v-0.14
					L7198.56,7197.89z"/>
				<path class="st6" d="M7195.37,7198.16c1.14,0.91,2.25,0.81,2.91,0.42c0.66-0.42,0.66-0.55,0.52-0.55c-0.12,0-0.25,0.13-0.79,0.4
					C7197.48,7198.7,7196.71,7198.7,7195.37,7198.16L7195.37,7198.16z"/>
				<path class="st6" d="M7198.62,7200.25c-0.2,0.06-0.31,0.31-0.22,0.51c0.05,0.22,0.28,0.34,0.48,0.25
					c0.14-0.05,0.26-0.19,0.26-0.36c0.06,0.13,0.34,0.55,0.86,0.55h0.14l-0.14,0.21c-0.12,0-0.52,0-0.8-0.21
					c-0.18,0.28-0.56,0.35-0.8,0.17c-0.29-0.21-0.35-0.59-0.18-0.88C7198.34,7200.34,7198.48,7200.26,7198.62,7200.25
					L7198.62,7200.25z"/>
				<path class="st6" d="M7197.82,7203.11c0.6-0.41,0.86-1.03,1.53-1.03c0.14,0,0.4,0.07,0.66,0.22h0.14l-0.14,0.19
					c-0.26,0-0.66-0.34-1.13-0.06C7198.42,7202.7,7198.14,7202.98,7197.82,7203.11L7197.82,7203.11z"/>
				<path class="st6" d="M7198.02,7203.11c1.33-0.41,1.59-0.14,1.99-0.14h0.14l-0.14,0.29
					C7199.48,7203.27,7199.21,7202.85,7198.02,7203.11L7198.02,7203.11z"/>
				<path class="st6" d="M7197.82,7203.11c1.47-0.14,0.99,0.76,2.19,0.76h0.14l-0.14,0.21
					C7198.56,7204.08,7199.21,7203.27,7197.82,7203.11L7197.82,7203.11z"/>
				<path class="st6" d="M7198.8,7205.31c0-0.67,0.56-1.23,1.2-1.23c0.65,0,1.19,0.55,1.19,1.23c-0.14-0.67-0.8-1.1-1.48-0.92
					C7199.28,7204.49,7198.91,7204.85,7198.8,7205.31L7198.8,7205.31z"/>
			</g>
		</g>
	</g>
</g>
</svg>
